<?xml version="1.0" standalone="no"?>
<!DOCTYPE svg PUBLIC "-//W3C//DTD SVG 20010904//EN"
 "http://www.w3.org/TR/2001/REC-SVG-20010904/DTD/svg10.dtd">
<svg version="1.0" xmlns="http://www.w3.org/2000/svg"
 width="301.000000pt" height="301.000000pt" viewBox="0 0 301.000000 301.000000"
 preserveAspectRatio="xMidYMid meet">
<metadata>
Created by potrace 1.14, written by Peter Selinger 2001-2017
</metadata>
<g transform="translate(0.000000,301.000000) scale(0.100000,-0.100000)"
fill="#000000" stroke="none">
<path d="M1724 2966 c-44 -44 -46 -92 -6 -137 60 -67 178 -43 203 41 10 33 9
43 -8 72 -24 41 -56 58 -111 58 -37 0 -50 -6 -78 -34z"/>
<path d="M1574 2799 c-127 -55 -157 -218 -54 -302 l27 -22 -20 -37 c-10 -21
-22 -38 -26 -38 -13 0 -31 50 -31 86 l0 35 -552 -3 -553 -3 -46 -27 c-45 -26
-89 -80 -104 -127 -4 -13 -7 -511 -7 -1107 l0 -1083 21 -45 c12 -24 38 -56 57
-71 76 -58 39 -56 852 -52 671 3 755 5 822 21 352 83 599 267 744 554 30 59
71 183 81 242 4 25 10 54 13 65 11 38 14 1432 3 1473 -14 50 -56 104 -106 133
l-40 24 -407 3 c-225 2 -408 4 -408 6 0 2 7 17 16 34 20 42 20 101 -1 145 -32
68 -41 65 -66 -18 -12 -41 -28 -80 -36 -86 -49 -41 -173 9 -173 69 0 8 23 42
50 77 28 35 50 66 50 69 0 12 -66 2 -106 -15z m226 -324 c0 -15 -33 -81 -48
-98 -37 -41 -113 -61 -169 -43 -19 6 -25 1 -43 -38 -11 -26 -25 -46 -30 -46
-14 0 -13 4 11 55 11 24 18 49 14 55 -4 6 4 31 16 56 23 42 25 44 59 37 50
-10 104 -6 142 11 37 16 48 19 48 11z m-1144 -240 c21 -26 21 -34 20 -439 -1
-446 1 -432 -55 -461 -22 -11 -33 -11 -64 0 -74 25 -68 -18 -68 565 l-1 315
33 28 c27 25 38 28 73 24 28 -4 48 -14 62 -32z m1794 -215 c0 -7 -260 -10
-760 -10 -500 0 -760 3 -760 10 0 7 260 10 760 10 500 0 760 -3 760 -10z m-42
-339 c7 0 11 -4 9 -9 -4 -5 -1480 -9 -1522 -3 -6 1 -5 5 2 9 9 5 1453 9 1511
3z m7 -421 c4 -7 -252 -10 -760 -10 -508 0 -764 3 -760 10 9 14 1511 14 1520
0z m-1756 -39 c95 -68 27 -223 -90 -207 -50 7 -76 24 -94 62 -20 43 -19 73 5
112 37 60 119 75 179 33z m1441 -371 c0 -7 -208 -10 -605 -10 -397 0 -605 3
-605 10 0 7 208 10 605 10 397 0 605 -3 605 -10z m-257 -419 c5 0 6 -4 4 -9
-4 -5 -887 -9 -947 -3 -11 1 -12 4 -3 9 9 5 910 9 946 3z"/>
</g>
</svg>
